<mxfile host="app.diagrams.net" modified="2021-07-27T08:17:42.126Z" agent="5.0 (Macintosh; Intel Mac OS X 10_15_7) AppleWebKit/537.36 (KHTML, like Gecko) Chrome/92.0.4515.107 Safari/537.36" etag="ho5N5mULm06tHZpUeIeB" version="14.9.2" type="github">
  <diagram id="DahAU3f_6F2OygN6GC6z" name="Page-1">
    <mxGraphModel dx="1773" dy="528" grid="1" gridSize="10" guides="1" tooltips="1" connect="1" arrows="1" fold="1" page="1" pageScale="1" pageWidth="827" pageHeight="1169" math="0" shadow="0">
      <root>
        <mxCell id="0" />
        <mxCell id="1" parent="0" />
        <mxCell id="U_LnG41WlEubOIaONuKL-71" value="" style="rounded=1;whiteSpace=wrap;html=1;dashed=1;" vertex="1" parent="1">
          <mxGeometry x="-500" y="200" width="150" height="80" as="geometry" />
        </mxCell>
        <mxCell id="U_LnG41WlEubOIaONuKL-62" value="" style="rounded=1;whiteSpace=wrap;html=1;dashed=1;" vertex="1" parent="1">
          <mxGeometry x="-270" y="110" width="240" height="240" as="geometry" />
        </mxCell>
        <mxCell id="U_LnG41WlEubOIaONuKL-50" value="" style="rounded=1;whiteSpace=wrap;html=1;dashed=1;" vertex="1" parent="1">
          <mxGeometry x="103.11999999999999" width="353.75" height="80" as="geometry" />
        </mxCell>
        <mxCell id="U_LnG41WlEubOIaONuKL-39" value="" style="rounded=1;whiteSpace=wrap;html=1;dashed=1;" vertex="1" parent="1">
          <mxGeometry x="110" y="450" width="360" height="280" as="geometry" />
        </mxCell>
        <mxCell id="U_LnG41WlEubOIaONuKL-2" value="&lt;h5&gt;comet-engine&lt;/h5&gt;" style="rounded=0;whiteSpace=wrap;html=1;fillColor=#d5e8d4;strokeColor=#82b366;" vertex="1" parent="1">
          <mxGeometry x="100" y="260" width="360" height="60" as="geometry" />
        </mxCell>
        <mxCell id="U_LnG41WlEubOIaONuKL-3" value="" style="endArrow=classic;html=1;exitX=0.5;exitY=1;exitDx=0;exitDy=0;" edge="1" parent="1" target="U_LnG41WlEubOIaONuKL-2">
          <mxGeometry width="50" height="50" relative="1" as="geometry">
            <mxPoint x="280" y="200" as="sourcePoint" />
            <mxPoint x="440" y="290" as="targetPoint" />
          </mxGeometry>
        </mxCell>
        <mxCell id="U_LnG41WlEubOIaONuKL-4" value="grpc" style="edgeLabel;html=1;align=center;verticalAlign=middle;resizable=0;points=[];" vertex="1" connectable="0" parent="U_LnG41WlEubOIaONuKL-3">
          <mxGeometry x="-0.2" relative="1" as="geometry">
            <mxPoint as="offset" />
          </mxGeometry>
        </mxCell>
        <mxCell id="U_LnG41WlEubOIaONuKL-6" value="" style="shape=image;verticalLabelPosition=bottom;labelBackgroundColor=#ffffff;verticalAlign=top;aspect=fixed;imageAspect=0;image=data:image/png,iVBORw0KGgoAAAANSUhEUgAAAS4AAACnCAMAAACYVkHVAAABMlBMVEX6ggD////+/vz8ggD4//z4hAD138v7hAD8///5gQD6///3fQD/fwD3///+gQD5gwb4egD//P/5iBL/ewD59+X1tI3/9e3yw4/yfQD///j+8eP5fAD6eAD927v1sYL1hQD1jy/50rb+69zvsHT689n/dgD0y5/v////+ezy//j3v5D75sb1tYrzigDxgAD5fxP0hSb+69fwcwD3xKLyhBnyoGH2u4LukznvqmPzqmvjm0vwrWTznV/y4bvxpFz7qGn88s710pT3wZjymEvohwz1xIXtnEX9rW72zZ37lFb9+d33uHjkiT/99OP4hC/0pnfsjyT/2sX52a7ziEHnmjr/2M7llWD5jzrigR7y/OjssHrlu5Xtz77jplPoyJn4eCTkp2X5w6rgfRD84rPpmSX8kyoPtLOgAAAPA0lEQVR4nO2dC1vbRrqAJY0HaTTSjGw5RmJkBAZfsLGMQcHrkropJpSGOgl0tyT09Gy7e/L//8L5RjJgAkmgZ/ckXs/75MF4bDnWy1y+uUijadeYEk3xQJSuR6FsPQ4l68HInKV0PRBVbT0KpesxKFePQul6DKokPhxpSsl6MCqCeBSqID4KpetRKFsKhUKhUCgUCoVCoVAoFIoHgb70F/j64WApQz7BeZrJ5Vh4nmjiL/ntvjaQhhzHz8BMi/PEGFOWpzkOjlWeu4EM/jI82DjdGA6H3wSU54koHR0MJaenz3oO+7Lf8OvB5Cj4tlnQJZbdL1GRzxqIUbhV1C3Ltt3C6pVDhdTVsQ2JZemVEqMYS2H+d0ZoWYahG5bbJkrXFIwRXSpYep69KhzxK10W6MpS7bZQuqZgzGZ1lfisLpkGJVLpugZj50YXFEawlev6YaoLULquwZojZnXlsjTNH1pQ/0O6ZVnLStcVd3TFOItU/Q2pS8pSumbAyPE+KIwaNjNdhp770pcF+dJf82sh12Xc6OIY5br0PNHSjeVI6ZryoS4CuuJZXbrSNQPUXbO6+JUuR+m6D8xlVT+rK1a6Pk4epipdDyTvBKnC+EDu04WVro9xjy6oz5Suj3Cn7iJcDkYrXfcDusRHdIVK1x0+CCRKnOX4G8ZVor1ME42Y2XJj8EY0UzMdHy2kwryLfWVm0nMczxOA/9rOB3AMo9AOUn5FksifMWFoIYdYP4jqBx4NMpJD93q8a2+XUjJl+hsNkoWcTbvdZ3TLz59v5hium+syinZtBZhMJitXTGqb33uLOJt2W9cshn5f6hV2JVW6HoyxqLpuVfUPp7CguvCf1NUqLaau2aj+EbrKC6oL/RldxVDp+gizL04ntpWuj9sKjWz+zAjDQqGw8Lo+X3fZTdcuWgZ0h+CXRdf1uZbR2no3WalU8nD+3daC6+Kf1/V9mnF0tLP2fNF13Rum3nrutiOEGCKYC9pxp7qMhdV1Tyfotq5DxhEyMbQKZOF13dtnvPXcbtNMF9fIjK4Fjeo/38W22gKbSK5jAl1XLaOldH2MNo3l7YwQ4rxvLbiuB4xItEmMr3Qteu66NRN0H0Z46EOriHkcx36/cFV3LWhV/4Au9iEqARBL0Kiz6HHX53XZJwEVQgRB4Ijr3KV0fVRX7cnG6enpwcEPq/vlUOn67HiXHJDIfynqi67rc1X9vSyuroeN1Ru6vGxI6XrwTJAx+yalSxXGB/Anp2WLhclC6jK1W4PPtyqoT1HYXFBdKLnRZeTM/n4P8lV7srO4uqxP+7mryyi8XMhJf1PTkupUwYNK4TR3WZvpIi4fBF382ZPD7e3tJ5L856cetnP2xyZaxOwl76rhB4EQ9DF4nqmhxfTF466pcc4x/IuxXHp6+yG+85AkcbcbL+LaVAmPM12PAaR96W+tUCgUCoVCoVAoFAqFQqFQKBQKhUKhUPyryKdVP9x39JMbkfJbD/9pIMfJ75jkOOjOKcrLMKjPb+7db2J4n9mNb3xxdHsnBBPjOJYXJNy8gzOPMSynHU2OSYK5/K9oL/h3nM6/mdSM6l4URZ5gcXJ3CUjPEaIed28SMKcRn9VFREJvHYIYDeoevlHPY1qve/l9e7vdWMj/LaJH6e3D5gOn9KKRsX2c0Dt/b9MUP+ztz95YyvthvV2acUFeLTe2r09cWmS7qyeNxkBcL5BgYnh4ePKjTKCpExyv115OOi+OYk7mb4UOGbTyBfFu2DkNqMY+WARCq+5mcpOZUHRuV3ZmbmSGfgrdWgAHEVPjRJY4M+03m+6+d60LHU3cZnObQkKMX1XtQnllxbYrpx7jc7eLDlmrFPuvV4eX55PQWk8ccvsEzKjq9nvyUkUzu+06qq/b5R02o2tg6EuBLIHx0Sg1sWmioO/q9lIP7ORHsZHRCq3tABJY2rcnp2966dMzK3ztxdz5/z7f/yOgy+1ECWH+eMU1TiN+q4CYUlftWpd5j650efkUnjI6OG/9zMxMl31WDJ85V76C9XC9ZWW5i57pxXHcTThNO3rrr93uvC07IWstq5YmPEm876zC85Rp5i1u6cpylzWjCwog8jxZgIk4tFuvnKmuw5p16LP8MA3y73ZZ36aMoQPXPgygYe0ldDzZ6iR83sINslYu1hJMODfpxCr/6COGSvDERIyZIs4LI4ZaBndjJ9OlT3YcAdEHgWhBni03mYc07i83W6+g8iIO6FpdsjtJdv2sGSfHzb/9EuqrRIik05ysIRMjRGhwvhWOnDsh3VcOXyvrNXnhOaPept4a+wwcdBMiPEeLew7osvo7iU8jquEUCmO0rm++cUTkeRTHR1IXAm1gJVq2W2kUyOv0+vaToRsOYpBu8tj73nryzABdvWhQdjsk3/2LJ5eh3vbnr6pv5boQ9SZ6eVDnXdEbnXSWzoc7fkpAl13pBeNG9XwYMC3TNUmT472z9e2EJnLd6vHGNzFZG47Ojdbld8PhRT3oW9tp2WrHshD3WDAJx99A7uLU2ba39iKSCcPxOLQ6VHzp838kUteSiKFpQxfFsP/W7znjv9lhZ6lVrP2ImdRV2102wlAvLv3Vy3W9XQ1bZd3tDHxkorc1e90jG3oYvjPknS5feLRmbUcdeymQuUv4I7tDR6Ar4d66vfXaz3QxHgcr9uT9vO31Jav6paiLkZ9Am3cZ8Pio724OaDCo2StHTqbrV+PybbpatDZ7LAZdzy+NJ293LgvuZAeyz86KDroGv43/y209Pf5ttIZA1xPv0jUG8KrW8xr2f9efZbqCjhs+8zXZt4Kaz5vY4XjuAomLUK/uRvXeqGPryxR1nQMb6hTe5X8Jw5HQomqzHL4WiHkN190XXW9dr0wuIyF2Nyy3EZgkrVnrkcNQfc9t/d3HMWZezVpN4a/QpqCLJSvlp9pTqQvzvhSU7VLIKPf6IG/uCiPompysn/XD1tJraOOPkuVJf0hKpgltQJsiyF1b/Zin3HzTKnRSDLnLfn5kJpjRfqGVINBlr0eYC69htC4c6BMyWrP3j4JvoTTKHTmOjU7An0JVj3HSt3Jd4IvkuuYud62VC26oW4V3S08C1sPcJAHlvMTw2sQ+9GRhtIYJxiaLqgV97EMgYbdZN4Z4/8TQvxE00xVz7u9B70jIEQpoGduRN9TDAdRduw29EbBfpC7U29TDn1i+KRPn3pIVPp2/uqts9UfPfj/Z1IudN7jXYw7EVI7fQ+mKm+lyi2N5Sw0s9or6Uz86141fHIjGzWhVt/ZFXhgxwfVDu/JKMMTNROoSr0K3Df3IUj8ccEfq4rkuuVeoDDA4XdLnUVfL7XhUiLTqNhuCQs+OmcluneBvyqALCqNb6WHIdN2kXbRPoczprZ/NLpywM7TsPaalK5mu2M91kUzXfgQHNqHrjUbhptDY01wXFMYRtIvSF8deXw9H86irT2NG/DeVJlQ+nDss/b2xtFl+Wch0nUMnSG5r1g329cI2pTKqlz1pkw1t+48IMqGd62pYee5CmS5S37bD9170q96IOJNVPceiY4dDKnVxCF93Ia8N2JyN4YCuQl8g4jB6Vgg36tAHfPbcCvuH+xsVqcuTumK5x6C3b1irHl23Jm99kuUu297LdXmgK2roUpesu2oyd9V/qljterJS/JFMdcVizwp/JUzWXibm0HaupM686boIp7qcS9s9dCDaLjY7A06Di4q75zHvBHQlHDKE39atDU+s25M1RxYn/1K3IPL4QBea6oJO4VmhT0Z6P0FTXRwNw7CasKzrjelGCAfO2xYAoMvuy4FO5l+EbpWYR9+6/VSkXfQKdAkHdK2kctCP10+K+sihDbs8dmTprIO+gxj1ssKoZbp2nCtdHuditVAeL7vLCZvqArUTu/xGjlRwrHlV25Yh/nzNgUDLaPc9OAOUBC17kqKLVvE8SlISjAqgS0Sv3cIxEQI5wbeFcKCJA718EJeSGNWrRQM8BlIXN9NorxiugS7CpC7Be72dSvhHvzBmV7pMM4BQtxGViNZLvXHLre0QP8BzpUuTgQTowiiBv3drrK0ZdjXyqL9bDUEX8S9adgOiduEcG9YfXsz4pHC+y5wSG4TuUoC0pF+QumJ66LZeOTxOudRF416PnNkteyVl6FqXma7orWHiQFYOOmH5IKABNedKl4y7apkuHrVtYwPvnrmVZ/Vod29SdvdoLAj0go6jqP52s/lyTSS4vlwIv9v1o3/8s1keQ1mSujxixvGwEK6KSGgoz10QUmzoW8228OIbXc5PE73SHvzjzcGm0bo8Oj7ZZ2iuYgn+c9iE2hh0Of4BBFIiOC67YXV9MhmCrgQq5redZlj99XziVoaU09jpnbn2UqPRcl+eRhCUphMXqnreRRcT164unxwHSc1tO9BGovetpjtyenHCRrp1KVtTSgfnhvuu3LJd2+i3LLcqxFzpcv5efb5MGDFRKf6ffy6d0JSOO2EhrA7S8/5rShljaXvF0O1W42foMps9gnZW+6ERVqoDUYLw9f155wXlOGZiXC3b7tZvXm+vc+ALopl0uXOewjExvFT7HTpKUO5YMN4/7yx1+pJO/wXtzdMIIcEOgSwjh0U5QlREUDhIkL5PI8ojL+gSKKam4OlOWqJyWhBqGmIyp7f2vuQxLCfUTEckGrRvyK97vbW1QZrGwk+1bIqXU5mltB6LKSX5XDk0wVBi5UQwAC1IXIrNT64h+KpAsi3DMZw3YoyCh1heFhwniSgh32fQY2FxDG0b5yQbmTdNqKYQ1NU8SdOeAxGU1AC2MPMJcpI48eF4sConvqFGdyAm1SBOYfnSAvkDQl7Og+meQvDpc6ULvinhRF6TD2eiYQl0ceRGP1IRIdOh9RxtOk2UHSUDJnR9qpDruLwRAjwyNHOFP7p6fzZZwqYfZE4/iWMkX50bXRI+1SVPNttSPdOV//lndbFrXZKpLpQNX2WfYspHOASkZG+VC3WuJyivHzUo0zd+MNLQ3OmS43VZlpCGoINioitd+Svsg9yVzznmL17pym6bmk/dousJ7DvAG8msLz5/ujKmOqSuq6SbOdM7p3N1grfvqzF98tmmbqafCLrmbp2E5FqXeY+uR37UI97L59GVQqFQKBQKhUKhUCgUCoVCoVAoFArFv5j/BTMJwF0de8NUAAAAAElFTkSuQmCC;" vertex="1" parent="1">
          <mxGeometry x="230" y="380" width="100" height="55.3" as="geometry" />
        </mxCell>
        <mxCell id="U_LnG41WlEubOIaONuKL-7" value="" style="endArrow=classic;html=1;exitX=0.5;exitY=1;exitDx=0;exitDy=0;entryX=0.5;entryY=0;entryDx=0;entryDy=0;" edge="1" parent="1" source="U_LnG41WlEubOIaONuKL-2" target="U_LnG41WlEubOIaONuKL-6">
          <mxGeometry width="50" height="50" relative="1" as="geometry">
            <mxPoint x="390" y="340" as="sourcePoint" />
            <mxPoint x="440" y="290" as="targetPoint" />
          </mxGeometry>
        </mxCell>
        <mxCell id="U_LnG41WlEubOIaONuKL-8" value="发送插件执行上下文" style="edgeLabel;html=1;align=center;verticalAlign=middle;resizable=0;points=[];" vertex="1" connectable="0" parent="U_LnG41WlEubOIaONuKL-7">
          <mxGeometry x="-0.08" y="-2" relative="1" as="geometry">
            <mxPoint as="offset" />
          </mxGeometry>
        </mxCell>
        <mxCell id="U_LnG41WlEubOIaONuKL-22" value="协程1" style="rounded=1;whiteSpace=wrap;html=1;fillColor=#f5f5f5;strokeColor=#666666;fontColor=#333333;" vertex="1" parent="1">
          <mxGeometry x="150" y="510" width="66.25" height="30" as="geometry" />
        </mxCell>
        <mxCell id="U_LnG41WlEubOIaONuKL-23" value="协程10" style="rounded=1;whiteSpace=wrap;html=1;fillColor=#f5f5f5;strokeColor=#666666;fontColor=#333333;" vertex="1" parent="1">
          <mxGeometry x="340" y="510" width="66.25" height="30" as="geometry" />
        </mxCell>
        <mxCell id="U_LnG41WlEubOIaONuKL-25" value="" style="endArrow=none;dashed=1;html=1;dashPattern=1 3;strokeWidth=2;exitX=0;exitY=0.5;exitDx=0;exitDy=0;" edge="1" parent="1" source="U_LnG41WlEubOIaONuKL-23">
          <mxGeometry width="50" height="50" relative="1" as="geometry">
            <mxPoint x="390" y="480" as="sourcePoint" />
            <mxPoint x="220" y="525" as="targetPoint" />
          </mxGeometry>
        </mxCell>
        <mxCell id="U_LnG41WlEubOIaONuKL-31" value="" style="endArrow=classic;html=1;exitX=0.25;exitY=1;exitDx=0;exitDy=0;" edge="1" parent="1" source="U_LnG41WlEubOIaONuKL-22">
          <mxGeometry width="50" height="50" relative="1" as="geometry">
            <mxPoint x="390" y="640" as="sourcePoint" />
            <mxPoint x="167" y="650" as="targetPoint" />
          </mxGeometry>
        </mxCell>
        <mxCell id="U_LnG41WlEubOIaONuKL-33" value="执行脚本" style="edgeLabel;html=1;align=center;verticalAlign=middle;resizable=0;points=[];" vertex="1" connectable="0" parent="U_LnG41WlEubOIaONuKL-31">
          <mxGeometry x="-0.1983" y="1" relative="1" as="geometry">
            <mxPoint as="offset" />
          </mxGeometry>
        </mxCell>
        <mxCell id="U_LnG41WlEubOIaONuKL-32" value="&lt;h3&gt;nas&lt;/h3&gt;" style="ellipse;shape=cloud;whiteSpace=wrap;html=1;fillColor=#fff2cc;strokeColor=#d6b656;" vertex="1" parent="1">
          <mxGeometry x="123.11999999999999" y="640" width="120" height="80" as="geometry" />
        </mxCell>
        <mxCell id="U_LnG41WlEubOIaONuKL-34" value="" style="endArrow=classic;html=1;exitX=0.625;exitY=0.2;exitDx=0;exitDy=0;exitPerimeter=0;entryX=0.75;entryY=1;entryDx=0;entryDy=0;" edge="1" parent="1" source="U_LnG41WlEubOIaONuKL-32" target="U_LnG41WlEubOIaONuKL-22">
          <mxGeometry width="50" height="50" relative="1" as="geometry">
            <mxPoint x="200" y="650" as="sourcePoint" />
            <mxPoint x="250" y="600" as="targetPoint" />
          </mxGeometry>
        </mxCell>
        <mxCell id="U_LnG41WlEubOIaONuKL-35" value="读取日志" style="edgeLabel;html=1;align=center;verticalAlign=middle;resizable=0;points=[];" vertex="1" connectable="0" parent="U_LnG41WlEubOIaONuKL-34">
          <mxGeometry x="-0.2238" y="-1" relative="1" as="geometry">
            <mxPoint as="offset" />
          </mxGeometry>
        </mxCell>
        <mxCell id="U_LnG41WlEubOIaONuKL-36" value="" style="shape=image;verticalLabelPosition=bottom;labelBackgroundColor=#ffffff;verticalAlign=top;aspect=fixed;imageAspect=0;image=data:image/png,iVBORw0KGgoAAAANSUhEUgAAAT4AAACfCAMAAABX0UX9AAAA51BMVEX///9srEhZljbCv79HR0q/vLxEREc+PkHEwcFBQUT7+/s5OTz4+Pg8PD/IxcXz8vLl5OTa2NikpKVqq0Xt7e3S0NBcXF9MTE+amptUVFc1NTnR0dLp6el1dXeQkJJspUyxsbJoaGpTky2Dg4Wpqaubm51jY2UuLjJjqDpPkSd6enzV487q8+XD2LihwpCTwXutz5vk8N7P48WhyIyAtWN/rGaQt3u716xHjRfV5su907FqoEu/2rCNvnPy9+6WvIN4s1d3qVusyJ6bxYQjIyh/p2iPrH54r1uesJGqtaBsnVC2vLCGqHKoyD3NAAAMOUlEQVR4nO2dC5ObRhLHJcRDvEECtDxE0HtXti9ZP9cXZ8++5OJcfN//89wMzxkYtJCtM+Kq/1Wu2hGMNPzU09PdDPJkAgKBQCAQCAQCgUAgEAj0HH0cegDj1psXQ49gzHp8+27oIYxZn5YPYH5/WS+X0+07ZehRjFUfp8spd/dq6GGMVJjelNv+/Dj0QEap17eI3pTjtu+HHskY9WGJ6SF83N3fhh7L+JTZXoqP2/5z6NGMTa9up9MSH/fwYejxjEvpqlHh47i/Dz2iMenlsqBX4Lt7PfSYxqPHtyW9Ah+3heyjq369nTbx/fxy6GGNRJ8IeiU+xA+yty66ny5Z+CD866ZfSHoEPsh+u+gDOXUpfBwH7u8pPS6Xrfgg+31Sv9L0aOt7gOj5sl7U6NH4OIheLuvtZXzbfww9wKvW69vpRXzcw/3QQ7xm/Vg3vjq+7XsInlv1sWF8dXzcHeS+rWoaXwPfFm78tolO19j4oPTSqjfNucvAB7Fzi5q2x8DH3UHsx1QzamHjg8oLU2+6WR8H981ZevzcER8UrlhiBH1sfNsvQw/1GlWvtbTi4+5g9jbFnLtsfFC3auieBY+ND/b8NfWK6fqY+DgOZm9dzLClBR+svXUpjULpBXyQuNWlsOduC74/hx7utem+Dz6Og7ILrU+98G3B+dH6qRe+O9hvSoudc0ynP7CtD2rOtH7phY/7YejxXpceW+KWNnx3Qw/4uvSSnfG24nuAvIPUfU98cL+SUkvBoB0fPCdNqje+sQR+jt2QFZm1k2yrJqdnSak3vpGU/LS5wJQbEYAsxgmG1Ydgb983EnyK5RrzWaq54bqugVoCaggzIypPitDLxTlGeYZRt9EL6rvyjgUfluliMoKVtxzbENIXbMK+FDtFZuM/zchNT5h159c77hsRvomJacwJGJaR2ZdWvaRh+xOcvBVhixXczvNX6Zl1jGbpwGrgQwZZ56dQ+JA7pJpPirG56iK+MT3jZs7q+CaTjJ9btlN8s4qXW8zlbupXMhhX2MzCp2T8rLJdw5f6QnfSVT/1TNrGtE+IhS97cTYvmnV8ePYK3fG1lUvb8I3pViUTX2Zfpfkx8XWfvOwtGq34ts+/qO8nc87Cp6XxYGFgtaUjg9sjcumFr2Wbi+am35fpJvuk9CphctiTIUI1wtnicJM0o1MrwS8p4Z7ZzxZu4pskzK2fPK6FwuJmL4SNPmx82epRvFzH5/YyvonSr9rceL5DcSxj5+kHlGUmvqjr+uqAr1CbHXld0mXPqJ3vJEc+CPAhP67ifzMKD5uVaiHT8ER88Ej3M4WjeDoFki56sR05kXEsnUgUezJ6Q13nvaTu5tj4onT25h+u1QIXHNZ0pzdRWtIONr5G1ByePUmVRX0/MbyTKsk8L+oxGsUaEZJF3KIHY3jqyd/tvEDmRckPCwIbMZBEceU4axX34nlZDYle9jEIdoJxkCXUK+B9UZUKfAs+OB3jHY/fUF1H1IdpbHwp1cL50fisXkEzVkvk0mJ99bjF3vESvto4/u0YLxZnfPHBIjkFx118XmGaK4s4PQ4kL+Vi7VA3URIKOuhMXvT3kqqKvJo1KhTzQJbTCaWd8YeJkhzE2RHnqOrr9APCDToki+SHteHLiNlEY4bTYpQAC8gurfrpl/WB7fzY+BjPtkUxNhfJT32ZImDTEfWN4eC0HV+tdKjOvZFEr3AsCxWdyGeMzHCd2pwkxqFl2Tvc0BdFL8sXpZv8wzwRgY3Pi4yJs0ZvmLs8DX8h8pqE1YIvc3cuiS+rtswykt1zDqTXPayPvXLs0LzZFIPc69gWi0NHdLVieWJ44lWh6obZ7opWjK3xmH/1QoDNjzhRLKAn6O9jCWSn82IZo2kbZLXqnhhYGz63YX2ubdvI/FKCguCyFrwWPTIe6mjFx9wdjq6cMDGETy8ZheiKgmIWmhs0MSvH4iBL4vVirgjIGCt/t8PzN++nBLzoFe9hqYhr0cdGLDfVG9qpPRMD644vNzgtryk0+7SLXTRg4mP/JiLGV860CWJUtfBkCwooIbYcot9BIqYoxieVfsfAtpj3sxG+TTmhMD67egOpNPTso3mJWKou4iOXjips1tK4b2Z0Xz6YzyUw8bX8Jh2NL5b5wlOh0SCfphrVefKO6GehKSpv8gaNz16hQ3m/kLQ+jK9oaMg16AnxhgKyfGIkl5cOh2gQWQeKSvsVDdg765n42E921PBJFD65woeutjqCD/rIMxaen8aHVgtezvNSZH08X16OiojnXRzs6ypfmkMnzPFS4FK83MCXZXE9zI+5zYWFr6Xc0hXfSqSW4Ylylqv4pIkvj2om5omY47bO68V7YOul8GFXIZ+rC2/B55BFlQa+LG3r4f1edsXHsftfwKfU8cVUx074JjhY4fPLWUgouC6uE+HTqZUWOT959yQ+zKcsGTTxOT3xNZ/EZ+Nr216FgVVXcUOuw3V88prsiE4VvXzkF/Bhl5ZTsXxZmpUnIXyUN1A29BeUommCSF2fQp5D4Utr1H3uF33shq/t9yAQPr0LPuT7eJnqiAPG/G+MT2bjQ7kK4uQlYZjwql/V4pw0TiYvHHtXwhzZ1keXpNrw9Qj9WBX7Jr7WRwJpfAcqCiTx4cg4IJY0BUV3pbFcwqfd8DijFeXAjwkYmBaxJmeRJBm4MEsG6dJQrQy1ksEkm7w9CqZIL5rej4GvrdB8Cd+ZwDevTTbsqsqg8BI+5K5iWV9tYoFOSPH3Uc3ltJcoE2bDLJfWCnpNfKlrpGsPT6n5dEIDX0vUMuk+eZ00Ya0IOHoVhEwS/RI+66yTS2yuUCJzO/T9SESmPMnx1W6bpfSIlzJ8BC084/sZH/Wzka3W13qXA81BAh+VwlGBS1olqLJcTKw6hvFVS0dE4xN8acXy5WmWm5TNtVyuRKnM8hZ4KURPmJOmpdWjZJySzPt4PqxG3aWO78KuZjRBicDlTGYdaZpb3Zbx0OXqhbdDFqZWU3mBLEllW5+5DlBrFzZ2+ExsHq9GSd4KAzGos6J2FSgRSmlrBQFHoEwU3wjutU0j02M9863h275r2RepmHMU64sbO/tI08Y1Pr9oJbhiuraL4diYn3y2NVxh92X9pgwfLFyxkhZmdmmagLGsrbwshWsLaPHwvePmHC+MqLp+QcIlndjSsKmtpBWZ8Dp2vsllZri2FVm2a8zwFiBi8JppFZtcXCuKIsvF+1zCv3A7rP58Rw1f23+gYO08VUSSpeMCr6WenrZUD9tY7GfH9OONVvBTZV5W13G8UQMxKd5lv+HltN7nnee4gphV/2T5uEj7Jae0nX2OpEqbysYEWUeWya/j3TE4bchlvajfVeU8vMGK2j/lzKtzqlN6lftKfaLM7/OXbuuGvVr5HpLvi8ipachCvOPxiNprnNKXx9alwSQbdP1qEKibfWVEmxN6Bb0WBL+hL8E9Baqqpv9yVyb4YkqPzyQTqZp58HRVV4PTakfdFnCMmlzXjmpmZc/mBDhkpYbba3sapR9J+/v8r22XqTtRLGT0juMgw8czLUobuJm20mN4UhDfqIlvtB0Sm/Qv4cwIbdsOXWPu4CmfoCsJjfksKWtdvsSvkHhZEtNKPvGGjp0cDnu3XmTXamJw0UxarHM6i9ps9fV3Eh838A+A2ccgDk3Tsez5wVNxJT8ZdkAsET8mtPz6B4Fv6Eex0AJUrt4TDS9HVKp7LaqejF5++TcRswz8Ay6xFCR0+zrxVfyW775dDb1FIK6oFyzpKifvpKqcLt8b1bIx7K4gFPWVZZlMEQqWe+yj+J7K+d3+Mf8zt70vAz9HZOl8zfpslS4bXpMyfrff5tna0R6yfC9ZK5EuyeP7vldqfJPi1+i+zVPndzf8T49kd0SIHS9z+cSovlyNPt0ul1+/zeb/2XIP1/D0sx2gvDY45GGxHZ+qZO8q9Xp6+x5nMz9fyf8Vs8f7jiR/vYtvdutV4IVPdxlU959/x/i+Xcs2cGOlyrhagFNbf9+7mvTd9djzTvv/WooQbzzfP65v+mxdHE4ueS/vKmRGluX0LQIPJXwzbxxf9FXKnF/T3B2dNGMm9NylCiLkAr7nyBUA3zNkA77nyAJ8zxHge5YiwPccAb5nyYSw+VlSLLA+EAgEAoFAIBAIBAKBQCAQCAQCgUAgEAgEAoFAIBAIBAKBQCAQCAQC/b/pv4sO+qplaACvAAAAAElFTkSuQmCC;" vertex="1" parent="1">
          <mxGeometry x="-220" y="270" width="128.74" height="64.37" as="geometry" />
        </mxCell>
        <mxCell id="U_LnG41WlEubOIaONuKL-37" value="" style="endArrow=classic;html=1;entryX=0.471;entryY=1.004;entryDx=0;entryDy=0;exitX=0;exitY=0.75;exitDx=0;exitDy=0;entryPerimeter=0;" edge="1" parent="1" source="U_LnG41WlEubOIaONuKL-22" target="U_LnG41WlEubOIaONuKL-62">
          <mxGeometry width="50" height="50" relative="1" as="geometry">
            <mxPoint x="-210" y="635" as="sourcePoint" />
            <mxPoint x="-160" y="585" as="targetPoint" />
            <Array as="points">
              <mxPoint x="-156" y="533" />
            </Array>
          </mxGeometry>
        </mxCell>
        <mxCell id="U_LnG41WlEubOIaONuKL-38" value="存执行记录" style="edgeLabel;html=1;align=center;verticalAlign=middle;resizable=0;points=[];" vertex="1" connectable="0" parent="U_LnG41WlEubOIaONuKL-37">
          <mxGeometry x="-0.0213" y="1" relative="1" as="geometry">
            <mxPoint as="offset" />
          </mxGeometry>
        </mxCell>
        <mxCell id="U_LnG41WlEubOIaONuKL-40" value="&lt;pre&gt;comet-job&lt;/pre&gt;" style="text;html=1;strokeColor=none;fillColor=none;align=center;verticalAlign=middle;whiteSpace=wrap;rounded=0;dashed=1;" vertex="1" parent="1">
          <mxGeometry x="360" y="690" width="70" height="20" as="geometry" />
        </mxCell>
        <mxCell id="U_LnG41WlEubOIaONuKL-12" value="" style="strokeWidth=2;html=1;shape=mxgraph.flowchart.annotation_2;align=left;labelPosition=right;pointerEvents=1;rotation=90;" vertex="1" parent="1">
          <mxGeometry x="243.75" y="376.25" width="72.5" height="188.75" as="geometry" />
        </mxCell>
        <mxCell id="U_LnG41WlEubOIaONuKL-45" value="web1" style="whiteSpace=wrap;html=1;shape=mxgraph.basic.pentagon;fillColor=#e1d5e7;strokeColor=#9673a6;" vertex="1" parent="1">
          <mxGeometry x="149.99" y="10" width="60" height="50" as="geometry" />
        </mxCell>
        <mxCell id="U_LnG41WlEubOIaONuKL-46" value="web2" style="whiteSpace=wrap;html=1;shape=mxgraph.basic.pentagon;fillColor=#fff2cc;strokeColor=#d6b656;" vertex="1" parent="1">
          <mxGeometry x="249.99" y="10" width="60" height="50" as="geometry" />
        </mxCell>
        <mxCell id="U_LnG41WlEubOIaONuKL-49" value="web2" style="whiteSpace=wrap;html=1;shape=mxgraph.basic.pentagon;fillColor=#ffe6cc;strokeColor=#d79b00;" vertex="1" parent="1">
          <mxGeometry x="346.24" y="10" width="60" height="50" as="geometry" />
        </mxCell>
        <mxCell id="U_LnG41WlEubOIaONuKL-51" value="" style="shape=flexArrow;endArrow=classic;html=1;fillColor=#f5f5f5;strokeColor=#666666;" edge="1" parent="1">
          <mxGeometry width="50" height="50" relative="1" as="geometry">
            <mxPoint x="179.49" y="90" as="sourcePoint" />
            <mxPoint x="179.49" y="130" as="targetPoint" />
          </mxGeometry>
        </mxCell>
        <mxCell id="U_LnG41WlEubOIaONuKL-52" value="" style="shape=flexArrow;endArrow=classic;html=1;fillColor=#f5f5f5;strokeColor=#666666;" edge="1" parent="1">
          <mxGeometry width="50" height="50" relative="1" as="geometry">
            <mxPoint x="360" y="130" as="sourcePoint" />
            <mxPoint x="360.24" y="90" as="targetPoint" />
          </mxGeometry>
        </mxCell>
        <mxCell id="U_LnG41WlEubOIaONuKL-54" value="&lt;h4&gt;API Server&lt;/h4&gt;" style="rounded=0;whiteSpace=wrap;html=1;fillColor=#f5f5f5;strokeColor=#666666;fontColor=#333333;" vertex="1" parent="1">
          <mxGeometry x="103.12" y="140" width="356.88" height="60" as="geometry" />
        </mxCell>
        <mxCell id="U_LnG41WlEubOIaONuKL-55" value="" style="shape=image;verticalLabelPosition=bottom;labelBackgroundColor=#ffffff;verticalAlign=top;aspect=fixed;imageAspect=0;image=data:image/png,iVBORw0KGgoAAAANSUhEUgAAAVwAAACRCAMAAAC4yfDAAAABgFBMVEX///8AAAAiHh89vbAGpd3wvxryvhoBm48fGxz8/Pz//f7+//4UDxA7vrDg3t8jHR92c3Tl5eUaFRY7Nzj//vs+PD1QUFDb+fc7tqTWoirN9PL4//0sKivs/v4AkYOzsbKKiInXnSvkx0X//uoEp9zToizTrkn09PQAo+GBgYH/++0jpMvNzc0HAAAAms0PDQ7E8fdmZGWYmJjDw8PW1NUmHCWkpKQcFBf68MtcXFwgHiUeIB7/9/2hn6A7OTp8entHR0f//OH657Py3I3q0WLlwCj988L48bDt33PlvgDiyTfz23nowkD0uivuvAD4uSf48MX07JzewobMoxzgshTHpjTgqiHOrlbKoUnanCPt4b3o3X/IoDjiwQ3QuGrLnDXXt0QAZYYUlNdEsNaM1OApExQUUGoSNEhCtccSHiwlhrQeGQqr5OofU3uNzeQXXoBcwt4afZoMT2QycX9KlYsAjnVjvbGJycVyyLii3tkNlJAApIpvt7Cc3tfF7ekrwaag7lfxAAATMklEQVR4nO1di3/bxpEGYEnFLiCCBEGKMkiRjuSDSBFCSCJUGFEiZUt2lYfqxmlap3Hv4uSu6bWX9u5aOU4v8r9+MwuABEACpG3alP3bzxYfeOzOfpidnZldAoLAwcHBwcHhQ/HgfRbYh/ELxytBMTwE7wiBEkEwli3ZOwCPVIogBP4ofMOXZcv1TkBBLgkRqOArMCGK2cBPy5bsrQb1/gzDNI1G4+TkwwcPPgScbDeAYILWgfP7MoDBCpWUErSv2x/euXv63tnZ+erq+fnZ2dl7p3fv3DsRlIZBQa8FfOGD24sAu31j2yTC9v1fvvf4HHhdXV1bW2Nvqxfn5+cf//JeQzC3GyZqMLcRLwQD1JKY2/c++fTsfC1gdYTPPlu7uLg4O72zLVDqmeJlC/w2wQB2jXufnF2s/YoR65G7OsL52q8AX5zeP2kQPJSTOx8IWFzDJI0Hp2dAJ1iEtUBrA47ZhtXHj/HDx79uUAUdM07vPABqYSw7+fzhFxFbsDpW4PBXMA73txuUO77zAcMF485vNjc3v1wLIUruyEqsrV2c3T2hjQYGbRyzYCqNk89vPdq8Dex+NpNcZPf89B6lDU7uHKDGg99uPrp16/bt22F2J8gdAxyHOw0Y2Li3mwYFYwL61e8ePbr9cHPTZzdmZEPsetvOwVdbPbu7TQhdtvzXGuBREeWrh5u3Nkf4cm2aro5ZDj6c/f6EGtwypMBQSOOrrx+GuAV208n1961dPP6koXDdTYFhNu58jXp7O8LuHOSCbT67SzFltuw2XFuQ7XtfPwoTi4Z384vVWWZh9TFmHFbvgu4uuwnXEjCSGYr54debEZsAgO9sUEu1uavn+O3Tbe7sJkBRlO0/3I5zi+x+OQqAI4iahrWLT+9wzZ0OSkzS+Pzhw0lygd0vksn1Ug1A7cWn9xsKJ3cqqGEa9/51kllvTPtsilGIGIjVs9N7hkm5tzAVRsM0frt5KxjNbgcY+WOp3sL5x6C2pM+zN9NBTeOr248ePQIrEAGzC7cehZIMmCe/CN4v4PX87PTXJ6ZCFB7+JsCg23/4l2T823sJOD39/f0HDUJMk09IJAL8sJPtRmN7G17C2Gbw3oNvYTQacKbJJi44uUlQDMVbuGR6rz78L0pIMUeLm7wPRDEMikng5cp/rUGBIkyJ4ccpPBm4VIH2vXU3PgzDVNhKHJzn4Tr78lDAU2NjFiFMYWkEy5burYehUCMKNBUm19iZIELOdTMpcN2N9yewYSp9ovC1pDNAhJ44A9/s7e/D/xCePPn2O+AXLAUPetNAiCpLydA+Ovz3/9jZ3V2JYmdnf/8H06jwGYh0uGIKt4zcP+7tIp0+GLm7u7s7e99X+pzcdFRTyf3go0PtT/srOzFyUXlXdr/f4FncdNQcLY3cDw4P1f9ciQNJ3n2y9z13GdLR0zVAoln44FDSgdyo0QWjAHZ4b3f/fUK5x5CCgp5mFpBe/ZvdlfiIhgzvPdn53qQG4ewmgZTTnAVG7p+/iWuuZxr2nqzsbZg8kZsMawa3SO5fV3amkMt8hr+YhsBj4CTknJnk6v+1O43cXRjWdn8wDMJ1NwkzyZU+SiIXR7UfFGpyzU2CpaaqLbgRH/35r1PJRTu8+4PAyU1Gus1NI3cH/u+/j7lgjgSkewuMXP2bqQMabNvZrzQoz5YnYzjDz00kF4zu/t/MBv9NRApaqUYXcHjw3zB2TejtDmzbv8lmJpbdhOuLWrq7oDFyVybIRcXd+wETN5zbZKRnxYBc6U97k4q7iwb3bxWeFUtHJj2fq2nyH3d29+I2d3dlf+87xeQ/k0oFEcpyGjT54H/AvO7GsLL/7V/MhmBQ/gPKFBChnuIuHAL0/93bh38RfPvd+xWFJ3Nng8yCuVHZqMRgsqUi3FGYCWUGBKHP7m9jsG/sA8UV05za2aBpgP2kT0yTRpYzEVxLhgtwTIHb3FRAhGVW2Nq7SYvgUeqtx4uBsLV6YHcp9xiSAbzRvpEMc3wHrEmYuIKMk5sIKlQ2biZjIxEwrKFNIZzcZFBa+fs/tpJRSsTl06uNismtQgpMhV5t/SIZNxKwDiiVnl7hUt1lt+H6Akan/9v6KYHardJ6Oko/3jT71OS2YTogILiZrLjrSZqLqguvz5+XnlV4UjcJuPT+2dYvputuMrcBxfD3tMJ/tJ4A8GMpGIYkxU2ld917eVpZdiOuKSgFcvtm6Z/TVHfdG7imYWwa1tcvN7jmJoOQjal6u34jXXNvsCNK4DKYy27C9YVp9jf+AWz+FFHf0kxyPYfhyjRMnoBMBDWN/s2trX9Gh7Wg86ejdIW3w+BLSRPRNyHS2tiK+gzzMAvcPjNZimHZTbjGgAGJ9DdKWy+gt7D78saNyyuT8HUhMwFOQwU9sp88w3tjPZ1dpHa9dHmTJxfmASVm3/x5y1feG0EIlsZv6edKn5ic3NkAZ7eimDf/DsOaHzykkwtqiybB5OTOAQzUzD6tPAPl9YMHr/uHzWzwDcjHnAIBarlZmAfs0TCmoWw8vVGKkunTPLbCmGy8WQEXQ1F4vnFuUFPpU2Hj2eXz52MlnXATSpdPN0yF8rDsxQAdHZQX/IarpyWgNz6mra8/f14q/fhsQyGmwW+b+6JQCMW5XVTfq58vS8+fPw+ZBXi5BGYrCmZ7TH5LgBcE2NC+N50u9PuCWbl69vOPlxArlEo31n98+uxqw8RZSZzzxVUNnNyXBTBHqMBuI1TxFjYogmLwNUyLA65NME3Dv72NwadzFgtvPYh3axvTXzDGchEcrwpvAZ7p304Mpy0Unl1cGEIPouTWloODg4ODg4ODg+OtBj5K+l2OQYnXuuU0kWQymdxSan4zIEIOWriUHIYiZERRbC2qOCI0AdcqG0OEFrRwSeqTETUnu6jCiFCGllwzM5NVpeWQS1+RXGJZVoTKgnzIyR0hI0rqy5NbFWWxGt5Q0OXrR672rpArSfory7RYvMXkSlFyyfX7De87Qy67ecI1Y/edIfe1zTO8QrFviFz/94kRPzSJ3GT1C++ZJDfppFdSZxI8BmUuqUh0y4jc175sPeY5TSeXTBzFQGF7TIE6c5ALZ0WLwb+4CxeqI+HhvwlC+YQFF4/6coaOGLti1Cti4X0LH3SROypKtq2We0c5YfTgizG5RLDcajtbLMuqbevHg+ZIZHzLtXtl23HU8rBVP+rkYAtpt9tZXdJbbYZaEw9t12q1UZ1QertYVm1HKrRq3WawsVkfyiCHXC5ma9WmNZJQsLotdnSvnRmxRaxc56jeK0gqit6qWuNOAHW2WTty1Zbo+o10a0XJsVVWoxsiN1fNFnRoV6HeXPigAJIPRFuWZUmWdVusEWGSXCKLoqrqcAj+U8WW5R8EJ2dFG3bAybKuq6KIZ1gONFfTJBAZ4IhHeOAxRmgBWbmW6OhYpyTrDjsHjnCHItbBylKhqGogIGmLos4ElG0xG9QtwFbRUXE7FiMejrmBaLAM1qIJ8a0jZrzWFFmNWDiUXfPJ1ZxuD5rG7uWJ7Vp0fE6tY1GSbBRDdCRJLAadL6y5ZRXUw3/aC7TfLgbtzh062DAGG/i360iu6qgHGorrgEY7YhuPLciyE5yVUVXwelX/NNZUAlZaxwZ62xxdFzv+pSA9ke1QmYD2cc736bqi6gRCwQ5ZdAPTeSzLx4JbRFEPRabrrq3DxXaCGts+uZIEjOusEFuHxrcWq7uEFlRJPWy7lpVr1kUgLutXECa31aq3q52m62bcTguuha9VijJUoVGtarPZ7HSq7UGvXEdNG2QHvQNN7w0Ysp0ouYKVh4bYeej5brNT7dZZYTko9kCqs6Kq3Vq26HQ8boWWDRei5uYsy21LuuQMfY+5U8y2uyhVJuO2QYP1oSeUIORlOV/Ha+WIehEtnSXLmiYW2kGNnYBcTRXz2W7HdTvtMlAtNhfKrXAEHBYtwRtDXeg5QQVhciOoQWN91YVhS5Ld0D5otme0Jwa0ELlQpWwfxUbxugOlhoeboItCSXqZjTvQpXJlGcvFXdHhzYW+7VsAJFeTVehQUt033CCyZE+Mr0CuWneDYqyeKi0uU+UVCYasPDah0BK1532LeAujhoDnY5XBEoyEFrvBzkhjJ1yxELmguPZR7JqRAnSasdNJIifKOX+0p9QVZb3g7Y4+jK7mjCsEciWwoJ1gN/EuSXyZVMhbwGsFDZblhZqFGAkUmmJ7xE31c/GGPkJLD4RC8TJT3fgUcr1GxOI1aL+cn2bxXFFyar6aYuU9nWkojZMLamG3/c95WdKzGehG/gFNqPFYSCA3qJMIRflwsUEFVGCHfdSaioYHNyRHaANwvjP+2TL7FCeFArlaErnAuzqIn+KRO+Uyte1xd2fjnj1NCdlFUOv+Z7C55fC+I3tMfAjRCE1hyt+ZPOxloQhl7GWhNo1JmYdcMAtqDefaYk/dSyXX68BxctEsNKdEWj2dqXlwGGohaPLkmvM4uWGvCpzuaazFw9+uPcUwvwIsUQMGJ3rXpOaS0KfsiFw4WrMH/pgQak0quVln2qiMfpF+lIuVpIBb5XsBPnK+WDHdJc04uaGdRSDXFSYQJxe6FI4FC0MGyK1FN3i6GA0iWLTTBA9p0BuWHVnyyYWxTceho9xqs9AsFGumkOtbzRjYQ+lssTDoNsMNtsAPjczkWeA8tJBbJpTlggdYbxWPZfB0E8kt6OHBcoQ4uWGzvQhAk+R8MYShHMgYJlew2gXmq0OcoKtjcqmrixj1qOCHS70uSuoN5GnkFsEATJCLPqHKioJq8tlq4JRZtgTRcBgykquwmxB2WrofcegY2iWSCwOcagkTiJPbZIq1ODTRUdVDgGDS8a5e2M/tHIoyY1C0pXwvH7iUjPU8hGYQV2ragS22MnOQO5Sn6RHEbQMZijrAO207olPz/EOwAlBySEDYf5BlS6atHgRmXnil54vQHxLIJR65dIq3MEEumvOFgZEbf5xpl+0KkQvOpaRC9NSBMInigDbq13g3/Ew1O8TkAzCs+qZtBrnytE4KsJpHrbzKgn1ZLDBdA3Llg7iAdSRXKNoYHXY7zQzmyzKJNndEbhyvW3NxjM3i4ogcwn8U74SfC7GL2vKkpYLv3UbLoZlO7Rh40AvEy929sM0Vgry35VazEmY5auwbMFhkgoUkzOFIBxZSloKBkU56C5G6JWcJ5OZEOeotMMQiNAz7JWvcpwYxconn4xNwQTVPdVPJxRgkJYbHeqw6mloUAyPIYfwQ9Pzw6R5YQ0BiGrnoLWTePLmWo+nF6UniMbmdmMc79nMjIEJdHTGKI2+qn5sE/6cneS8KJHieFIvmvMt8LGth6+KC35NkFrCrzeHnLppciPNldXoWc0xuNWboE8iltCNqgaOI5HbDeyMRGga0KUKBQFnPdhCmoLkpRxNJ1sLqmUwui/JmR2ivgdyBmtRHw+TKI7m9cxI0N0KuFm3PmFzm/qVLRcam58ieEs8JLF7WtJB/lUYuXOmD4mQtr51cUCO9N3XPmNxm7JgwuSHvhuAzfoMOPxE8h5Ll0NFnxPAE/TWRUQeXwh8lYyjIEWpSyKWWKmtTQrTswesll1gatAJVbMLuhgY0G0ZbFiB4K1pbQK4bWeLhfXaxDT7rEEjJZS+V5W0IpRwHDuyblu8ZoxtoN6PZHkw5BPQO+saI9g4L5D3EyQXbosn5CffvtWsuNkMTe50cu/G9ZeUyTf8Sh10xXdKHONxSC5xaXQU/vmex3HWv1kXn1yJWrllzZNgeLCkG9wecPItCiawBI3IVuFgYcQyacB7W12FmqdpqMz+a4MRjC4XyTTawptnDao6MBGxSbzsmwFG74YRaAcrU9I53wY6j5BIFHHXtwKmNagxPUEbIXWgQgVlMqFgX1TLACz5bE8lyFmo4hWIxjzGUruoQasotC/sim8VSJUmz0fXXg7GHsIumQqkQQmWj5OI+DAQh2vMCLKaXbZzEYzNZENLqkmwX/X4iDEQsWPQFhBNYshwuH04xQWg8LNuiw6JySRwyqxQjF65nW9QwcwE1MoFrPrmvN0LD+aUsTuRJGptGBa9yTK5sB+FvF5sLYTLOy4rldhHJQbmaou7N17I5W1UsZMbTwnjRJJxvxTwLEY513VvliD5q17a9GVf8c1hipiYGM7/eTGx2NFjRmpd18KE7x57gubLNpqxRMNFusaPQwrG6wuRiHgKuXSAoXIM6EzFr6zFydTHdjXlRciGObLb0UWRZHraOfHLzw0LdvwBCs+jPsg5rTYgZupjGsXDNQqswip4PxvMqeJJVC0rtYQm94XAYkEvhxOPgNGnIvIpmrZd3RlLU3fH6BCK4g1ElNq47YPYerl/Nnywus0SP27K90J1AXcXwGKjgPHUtP26j59LUC8PjCLnQ4vZC53/ZcE/ADuE0KksdTCleYck9NInBFvg6WpyRcZu4LzoksqxDp1pt5mL5qMC/sDLsrPBqGWYPYeNkBovmAgFJWECS6WBqwTsEi+yMEnPRVrDIGpvgp0feJOa/Wt6R8937nsTe569kils797kvWtmbwzUWbR6ki3+tfu/CwcHBwcHBwcHBcQ3x/03Dg2BRq+QuAAAAAElFTkSuQmCC;" vertex="1" parent="1">
          <mxGeometry x="-233.63" y="150" width="156" height="65" as="geometry" />
        </mxCell>
        <mxCell id="U_LnG41WlEubOIaONuKL-63" value="" style="shape=flexArrow;endArrow=classic;startArrow=classic;html=1;exitX=1;exitY=0.75;exitDx=0;exitDy=0;fillColor=#f5f5f5;strokeColor=#666666;" edge="1" parent="1" source="U_LnG41WlEubOIaONuKL-62">
          <mxGeometry width="100" height="100" relative="1" as="geometry">
            <mxPoint x="30" y="350" as="sourcePoint" />
            <mxPoint x="99" y="290" as="targetPoint" />
          </mxGeometry>
        </mxCell>
        <mxCell id="U_LnG41WlEubOIaONuKL-64" value="流转信息更新" style="edgeLabel;html=1;align=center;verticalAlign=middle;resizable=0;points=[];" vertex="1" connectable="0" parent="U_LnG41WlEubOIaONuKL-63">
          <mxGeometry x="-0.0388" y="-1" relative="1" as="geometry">
            <mxPoint y="-1" as="offset" />
          </mxGeometry>
        </mxCell>
        <mxCell id="U_LnG41WlEubOIaONuKL-65" value="" style="shape=flexArrow;endArrow=classic;startArrow=classic;html=1;exitX=1;exitY=0.75;exitDx=0;exitDy=0;fillColor=#f5f5f5;strokeColor=#666666;" edge="1" parent="1">
          <mxGeometry width="100" height="100" relative="1" as="geometry">
            <mxPoint x="-29" y="169.5" as="sourcePoint" />
            <mxPoint x="100" y="169.5" as="targetPoint" />
          </mxGeometry>
        </mxCell>
        <mxCell id="U_LnG41WlEubOIaONuKL-66" value="搜索和存/读数据" style="edgeLabel;html=1;align=center;verticalAlign=middle;resizable=0;points=[];" vertex="1" connectable="0" parent="U_LnG41WlEubOIaONuKL-65">
          <mxGeometry x="-0.0388" y="-1" relative="1" as="geometry">
            <mxPoint y="-1" as="offset" />
          </mxGeometry>
        </mxCell>
        <mxCell id="U_LnG41WlEubOIaONuKL-69" value="" style="endArrow=classic;html=1;exitX=0;exitY=0.5;exitDx=0;exitDy=0;entryX=0;entryY=0.5;entryDx=0;entryDy=0;" edge="1" parent="1" source="U_LnG41WlEubOIaONuKL-36" target="U_LnG41WlEubOIaONuKL-55">
          <mxGeometry width="50" height="50" relative="1" as="geometry">
            <mxPoint x="-180" y="230" as="sourcePoint" />
            <mxPoint x="-130" y="180" as="targetPoint" />
            <Array as="points">
              <mxPoint x="-430" y="302" />
              <mxPoint x="-430" y="183" />
            </Array>
          </mxGeometry>
        </mxCell>
        <mxCell id="U_LnG41WlEubOIaONuKL-70" value="故障同步" style="edgeLabel;html=1;align=center;verticalAlign=middle;resizable=0;points=[];" vertex="1" connectable="0" parent="U_LnG41WlEubOIaONuKL-69">
          <mxGeometry x="0.0317" relative="1" as="geometry">
            <mxPoint as="offset" />
          </mxGeometry>
        </mxCell>
        <mxCell id="U_LnG41WlEubOIaONuKL-76" value="comet-syncer" style="text;html=1;strokeColor=none;fillColor=none;align=center;verticalAlign=middle;whiteSpace=wrap;rounded=0;dashed=1;" vertex="1" parent="1">
          <mxGeometry x="-430" y="260" width="80" height="20" as="geometry" />
        </mxCell>
      </root>
    </mxGraphModel>
  </diagram>
</mxfile>
